<svg width="40" height="40" viewBox="0 0 40 40" fill="none" xmlns="http://www.w3.org/2000/svg">
<g clip-path="url(#clip0_520_5498)">
<path fill-rule="evenodd" clip-rule="evenodd" d="M4 4H8H12H16H20H24H28H32H36V8H40V12V16V20V24V28V32H36V28V24V20V16V12H32V8H28H24H20H16H12H8V12H4V16V20V24V28V32H0V28V24V20V16V12V8H4V4ZM12 16H8V12H12V16ZM16 20H12V16H16V20ZM24 20V24H20H16V20H20H24ZM28 16V20H24V16H28ZM28 16H32V12H28V16ZM4 32H8H12H16H20H24H28H32H36V36H32H28H24H20H16H12H8H4V32Z" fill="#131516"/>
</g>
<defs>
<clipPath id="clip0_520_5498">
<rect width="40" height="40" fill="white"/>
</clipPath>
</defs>
</svg>
