<svg width="220" height="31" viewBox="0 0 220 31" fill="none" xmlns="http://www.w3.org/2000/svg">
<path d="M38.2755 0.5V13.8496L39.2023 12.3174C39.5176 11.7969 39.9464 11.3007 40.4972 10.8301C41.0312 10.3738 41.69 9.99682 42.4835 9.7002C43.2549 9.41187 44.1646 9.26172 45.2238 9.26172C46.5059 9.26172 47.6518 9.49708 48.67 9.96387L48.671 9.96484C49.6869 10.428 50.4798 11.0809 51.0626 11.9248L51.0636 11.9258C51.636 12.7498 51.9318 13.7391 51.9318 14.916V29.1699H49.2384V15.6533C49.2384 14.2889 48.7662 13.1799 47.7814 12.3965C46.8252 11.636 45.607 11.2783 44.1652 11.2783C43.1918 11.2783 42.2663 11.4361 41.3956 11.7578C40.5096 12.0852 39.7796 12.5876 39.2179 13.2666L39.2159 13.2686C38.6326 13.9809 38.3546 14.8664 38.3546 15.8926V29.1699H35.6808V0.5H38.2755Z" fill="white" stroke="white"/>
<path d="M61.7769 1.31396V4.14795H59.0034V1.31396H61.7769Z" fill="white" stroke="white"/>
<path d="M61.6968 9.52002V29.1646H59.1245V9.52002H61.6968Z" fill="white" stroke="white"/>
<path d="M92.606 9.12134C94.4752 9.12134 96.0231 9.52316 97.272 10.302C98.45 11.0368 99.365 12.0519 100.021 13.3625L100.149 13.6292C100.811 15.073 101.151 16.8052 101.151 18.8401V19.6985H86.356V20.1985C86.356 21.5609 86.5823 22.8067 87.0415 23.9329C87.5074 25.0752 88.2262 25.9948 89.1938 26.677C90.181 27.3729 91.3964 27.7063 92.8071 27.7063C94.2031 27.7063 95.4352 27.3802 96.48 26.7073L96.481 26.7083C97.4382 26.0941 98.0838 25.2268 98.4194 24.134H100.907C100.631 25.1881 100.154 26.0837 99.481 26.8323C98.6671 27.7339 97.6868 28.4133 96.5337 28.8694H96.5327C95.3658 29.3325 94.1527 29.5627 92.8843 29.5627C91.0254 29.5627 89.4193 29.1618 88.0396 28.3723C86.6609 27.5834 85.5815 26.4508 84.7983 24.9602C84.0191 23.4769 83.6187 21.6764 83.6187 19.5413C83.6187 17.4291 83.9828 15.5995 84.6929 14.0403C85.4013 12.4849 86.4212 11.2822 87.7544 10.4192C89.0787 9.56198 90.6882 9.12137 92.606 9.12134ZM92.5845 10.9153C91.2137 10.9153 90.0334 11.2462 89.0854 11.9407C88.1664 12.6121 87.4772 13.4751 87.0239 14.5217C86.5789 15.5495 86.3608 16.6124 86.3755 17.7112L86.3813 18.2043H98.5952V17.7043C98.5952 16.4622 98.3842 15.3285 97.9565 14.3079C97.5222 13.2714 96.8541 12.4384 95.9497 11.8284H95.9487C95.0288 11.211 93.8968 10.9153 92.5845 10.9153Z" fill="white" stroke="white"/>
<path d="M123.59 1.29199H126.988L127 2.90723H124.41C123.5 2.90723 122.72 3.15638 122.279 3.80664V3.80762C121.893 4.38232 121.734 5.18519 121.734 6.14355V9.51953H126.806V11.2148H121.795V29.1641H119.08V11.2148H114.727V9.51953H119.08V5.82422C119.08 4.2668 119.477 3.16314 120.194 2.42871C120.907 1.69936 122.008 1.29207 123.59 1.29199Z" fill="white" stroke="white"/>
<path d="M141.482 9.11841C141.763 9.11841 142.041 9.1381 142.316 9.17407C142.411 9.18772 142.492 9.20516 142.56 9.22192V11.7932C142.49 11.782 142.417 11.7727 142.343 11.7649C142.035 11.7324 141.765 11.7157 141.534 11.7141H141.535C140.778 11.6636 140.055 11.6962 139.372 11.8157L139.081 11.8723C138.304 12.0384 137.61 12.3261 137.006 12.7375L137.005 12.7385C136.391 13.1606 135.907 13.7133 135.557 14.3889C135.198 15.0816 135.031 15.8992 135.031 16.8245V29.1614H132.357V9.51685H134.872V12.9905L135.843 13.1565C136.17 12.229 136.619 11.4786 137.187 10.8928C137.768 10.2971 138.424 9.85342 139.161 9.56177C139.908 9.26592 140.682 9.11841 141.482 9.11841Z" fill="white" stroke="white"/>
<path d="M191.397 9.11841C192.066 9.11841 192.772 9.22055 193.52 9.42993C194.236 9.63011 194.903 9.98139 195.523 10.4924C196.047 10.9238 196.5 11.5097 196.875 12.2639L197.03 12.5979C197.419 13.4924 197.627 14.6712 197.627 16.1614V29.1584H194.911V16.5217C194.911 15.2295 194.709 14.1571 194.247 13.3635C193.801 12.5983 193.202 12.0382 192.446 11.7102L192.444 11.7092C191.734 11.404 190.976 11.2503 190.179 11.2502C189.561 11.2502 188.92 11.3573 188.26 11.5637L187.975 11.6584C187.168 11.942 186.484 12.4213 185.923 13.0862C185.319 13.8014 185.046 14.7454 185.046 15.8645V29.1614H182.371V15.4465C182.371 14.5385 182.127 13.7477 181.615 13.0989L181.614 13.0979C181.131 12.4882 180.525 12.0259 179.804 11.7131L179.803 11.7122L179.541 11.6057C178.926 11.3734 178.304 11.2532 177.68 11.2532C177.006 11.2532 176.331 11.3687 175.659 11.5999L175.371 11.7063C174.573 12.0193 173.907 12.5152 173.367 13.1858C172.792 13.9005 172.527 14.8098 172.527 15.8645V29.1614H169.853V9.51685H172.406V13.7385L173.329 12.2795C173.86 11.4399 174.596 10.6949 175.545 10.0491C176.437 9.44222 177.627 9.11841 179.157 9.11841C179.759 9.11841 180.377 9.20795 181.013 9.38989L181.288 9.47388C182.013 9.70881 182.677 10.0608 183.283 10.5315C183.876 10.9915 184.334 11.5506 184.66 12.2131L185.053 13.0139L185.53 12.26C186.05 11.4381 186.73 10.7557 187.577 10.2092L187.951 9.98267C188.958 9.41063 190.106 9.11842 191.397 9.11841Z" fill="white" stroke="white"/>
<path d="M2.94043 9.52002V15.4009H0.5V9.52002H2.94043Z" fill="white" stroke="white"/>
<path d="M16.7042 9.52002V15.4009H14.2638V9.52002H16.7042Z" fill="white" stroke="white"/>
<path d="M30.4679 9.52002V15.4009H28.0275V9.52002H30.4679Z" fill="white" stroke="white"/>
<path d="M6.38074 16.4004V22.2812H3.94031V16.4004H6.38074Z" fill="white" stroke="white"/>
<path d="M13.2639 16.4004V22.2812H10.8235V16.4004H13.2639Z" fill="white" stroke="white"/>
<path d="M9.82092 23.281V29.1619H7.38049V23.281H9.82092Z" fill="white" stroke="white"/>
<path d="M20.1444 16.4004V22.2812H17.704V16.4004H20.1444Z" fill="white" stroke="white"/>
<path d="M27.0249 16.4004V22.2812H24.5845V16.4004H27.0249Z" fill="white" stroke="white"/>
<path d="M23.5847 23.281V29.1619H21.1443V23.281H23.5847Z" fill="white" stroke="white"/>
<path d="M74.1676 2.38647V9.32983H81.1149V11.8035H74.1676V25.6912H71.6979V11.8035H68.2242V9.32983H71.6979V2.38647H74.1676Z" fill="white" stroke="white"/>
<path d="M81.1113 26.6909V29.1646H75.168V26.6909H81.1113Z" fill="white" stroke="white"/>
<path d="M162.418 12.9602V25.7239H159.978V18.8411H153.095V16.4006H159.978V12.9602H162.418Z" fill="white" stroke="white"/>
<path d="M152.095 19.8408V22.2812H148.655V25.7236H146.214V19.8408H152.095Z" fill="white" stroke="white"/>
<path d="M158.978 9.52002V11.9604H149.655V9.52002H158.978Z" fill="white" stroke="white"/>
<path d="M148.655 12.9602V15.4006H146.214V12.9602H148.655Z" fill="white" stroke="white"/>
<path d="M216.06 9.52002V11.9604H206.736V9.52002H216.06Z" fill="white" stroke="white"/>
<path d="M216.06 26.7241V29.1646H206.736V26.7241H216.06Z" fill="white" stroke="white"/>
<path d="M219.5 23.281V25.7214H217.06V23.281H219.5Z" fill="white" stroke="white"/>
<path d="M219.5 12.9602V18.8411H213.62V16.4006H217.06V12.9602H219.5Z" fill="white" stroke="white"/>
<path d="M205.737 12.9602V19.8411H212.619V22.2805H205.737V25.7239H203.296V12.9602H205.737Z" fill="white" stroke="white"/>
<path d="M158.978 26.7241V29.1646H149.655V26.7241H158.978Z" fill="white" stroke="white"/>
<path d="M165.859 26.7241V29.1646H163.418V26.7241H165.859Z" fill="white" stroke="white"/>
</svg>
